<svg xmlns="http://www.w3.org/2000/svg" viewBox="0 0 512 512" role="img" aria-label="Nowwagon logo">
  <defs>
    <linearGradient id="g" x1="128" y1="64" x2="384" y2="448" gradientUnits="userSpaceOnUse">
      <stop offset="0" stop-color="#fb923c"/>
      <stop offset="1" stop-color="#f97316"/>
    </linearGradient>
    <filter id="s" x="-20%" y="-20%" width="140%" height="140%">
      <feDropShadow dx="0" dy="12" stdDeviation="14" flood-opacity=".22"/>
    </filter>
  </defs>

  <!-- Pin -->
  <path
    filter="url(#s)"
    fill="url(#g)"
    d="M256 40c-94.4 0-171 76.6-171 171 0 47.7 19.9 91 52 122.5 29.4 29 51.8 65 69 102.5l34.8 73.1c6.3 13.3 25.3 13.3 31.6 0l34.8-73.1c17.2-37.5 39.6-73.5 69-102.5 32.1-31.5 52-74.8 52-122.5C427 116.6 350.4 40 256 40z"
  />

  <!-- Inner circle -->
  <circle cx="256" cy="210" r="126" fill="#fff" opacity=".18"/>
  <circle cx="256" cy="210" r="110" fill="none" stroke="#fff" stroke-width="18" opacity=".92"/>

  <!-- N -->
  <path
    fill="#fff"
    d="M212 275v-130h36l52 76v-76h36v130h-36l-52-76v76h-36z"
  />
</svg>

